<svg width="256" height="256" viewBox="0 0 256 256" fill="none" xmlns="http://www.w3.org/2000/svg">
<path d="M0 182.771V211.605C0.490695 219.798 3.10162 227.722 7.57687 234.602C16.3183 247.567 30.7144 254.849 46.8643 254.849H177.537C220.838 254.849 255.958 219.449 255.958 175.783C255.958 132.118 220.88 96.8156 177.579 96.8156H158.118V97.9661V96.8156V78.4206C158.118 35.0781 122.731 0 79.066 0C35.4008 0 0 35.0781 0 78.4206V182.771ZM27.0943 191.695V78.4206C27.0943 64.6406 32.5684 51.4249 42.3124 41.681C52.0563 31.937 65.272 26.4629 79.052 26.4629C92.832 26.4629 106.048 31.937 115.792 41.681C125.536 51.4249 131.01 64.6406 131.01 78.4206V97.896H60.8535V149.11C60.8535 155.5 62.1121 161.828 64.5575 167.732C67.003 173.635 70.5872 179 75.1058 183.518C79.6243 188.037 84.9886 191.621 90.8923 194.066C96.7961 196.512 103.124 197.77 109.514 197.77C115.904 197.77 122.232 196.512 128.135 194.066C134.039 191.621 139.403 188.037 143.922 183.518C148.44 179 152.025 173.635 154.47 167.732C156.916 161.828 158.174 155.5 158.174 149.11V123.854H177.636C191.414 123.854 204.628 129.327 214.37 139.07C224.113 148.812 229.586 162.026 229.586 175.804C229.586 189.583 224.113 202.796 214.37 212.539C204.628 222.282 191.414 227.755 177.636 227.755H58.6927C48.7726 227.755 38.0247 229.635 31.0652 220.88C28.9094 218.009 27.545 214.622 27.1084 211.058L27.0943 191.695ZM131.024 123.84V146.669C130.88 152.328 128.53 157.707 124.477 161.659C120.423 165.611 114.986 167.823 109.324 167.823C103.663 167.823 98.2258 165.611 94.1721 161.659C90.1184 157.707 87.769 152.328 87.6251 146.669V123.84H131.024Z" fill="url(#paint0_linear)"/>
<path d="M131.024 97.8945H118.144V123.838H131.024V97.8945Z" fill="#134DDE"/>
<defs>
<linearGradient id="paint0_linear" x1="0" y1="127.432" x2="256" y2="127.432" gradientUnits="userSpaceOnUse">
<stop stop-color="#134DDE"/>
<stop offset="1" stop-color="#137BDE"/>
</linearGradient>
</defs>
</svg>
